<?xml version="1.0" encoding="UTF-8"?>
<svg width="262px" height="46px" viewBox="0 0 262 46" version="1.1" xmlns="http://www.w3.org/2000/svg" xmlns:xlink="http://www.w3.org/1999/xlink">
    <!-- Generator: Sketch 47.1 (45422) - http://www.bohemiancoding.com/sketch -->
    <title>Quickload-Horizontal logo-color-</title>
    <desc>Created with Sketch.</desc>
    <defs>
        <polygon id="path-1" points="30.0804243 36.9210526 0.0360550459 36.9210526 0.0360550459 0.583473684 60.1247936 0.583473684 60.1247936 36.9210526"></polygon>
    </defs>
    <g id="_LATEST" stroke="none" stroke-width="1" fill="none" fill-rule="evenodd">
        <g id="00-splash" transform="translate(-67.000000, -272.000000)">
            <g id="Quickload-Horizontal-logo-color-" transform="translate(67.000000, 272.000000)">
                <g id="Group-4" transform="translate(0.000000, 9.078947)">
                    <mask id="mask-2" fill="white">
                        <use xlink:href="#path-1"></use>
                    </mask>
                    <g id="Clip-2"></g>
                    <polygon id="Fill-1" fill="#393A37" mask="url(#mask-2)" points="53.1144908 27.5630789 60.1247936 27.5630789 60.1247936 1.21597368 53.1144908 1.21597368"></polygon>
                    <path d="M7.01030275,14.7587368 C7.01030275,20.0802105 8.73613761,21.8717895 11.4564908,21.8717895 C13.5500872,21.8717895 16.1646789,21.1872368 16.1646789,21.1872368 L16.1646789,6.90726316 C16.1646789,6.90726316 14.2297248,6.69602632 12.9738073,6.69602632 C8.16105963,6.69602632 7.01030275,9.06744737 7.01030275,14.7587368 Z M0,14.7587368 C0,3.42881579 3.76594954,0.583473684 12.9738073,0.583473684 C16.0078394,0.583473684 23.1755826,1.26863158 23.1755826,1.26863158 L23.1755826,36.9210526 L16.1646789,36.9210526 L16.1646789,26.7726053 C16.1646789,26.7726053 12.8169679,28.1955789 10.5154541,28.1955789 C3.39999083,28.1955789 0,24.8757105 0,14.7587368 L0,14.7587368 Z" id="Fill-3" fill="#393A37" mask="url(#mask-2)"></path>
                </g>
                <path d="M49.3677706,10.2949211 L49.3677706,36.6420263 L42.4091468,36.6420263 L42.4091468,35.1663947 C42.4091468,35.1663947 38.6425963,37.2745263 35.8693624,37.2745263 C28.2311009,37.2745263 26.6621055,33.0062105 26.6621055,24.1009737 L26.6621055,10.2949211 L33.6724083,10.2949211 L33.6724083,24.2056842 C33.6724083,28.8958684 33.8821284,30.9507368 37.335,30.9507368 C39.9507936,30.9507368 42.356867,30.0022895 42.356867,30.0022895 L42.356867,10.2949211 L49.3677706,10.2949211" id="Fill-5" fill="#393A37"></path>
                <path d="M82.8088257,10.8215 L82.5997064,16.4074737 C82.5997064,16.4074737 78.4665963,15.9862105 76.4781606,15.9862105 C71.5993119,15.9862105 70.5717431,17.8262105 70.5170596,22.7627368 C70.5152569,22.9073947 70.514656,23.0550789 70.514656,23.2051842 C70.514656,29.1065 71.5079725,30.9507368 76.5304404,30.9507368 C78.5188761,30.9507368 82.5997064,30.5294737 82.5997064,30.5294737 L82.8088257,36.1675 C82.8088257,36.1675 77.2112798,37.2745263 74.2812064,37.2745263 C66.4861055,37.2745263 63.3991927,33.1109211 63.3991927,23.2051842 C63.3991927,22.9812368 63.4009954,22.7603158 63.4046009,22.5424211 C63.5572339,13.6777368 66.8298303,9.66242105 74.4380459,9.66242105 C77.4726789,9.66242105 82.8088257,10.8215 82.8088257,10.8215" id="Fill-6" fill="#393A37"></path>
                <polyline id="Fill-7" fill="#393A37" points="86.0297431 36.6420263 86.0297431 0.801368421 93.0400459 0.801368421 93.0400459 20.7284474 95.7075183 20.2539211 100.886826 10.2949211 108.734206 10.2949211 101.933023 22.7827105 109.100766 36.6420263 101.201106 36.6420263 95.9172385 26.3664737 93.0400459 26.841 93.0400459 36.6420263 86.0297431 36.6420263"></polyline>
                <polygon id="Fill-8" fill="#FFFFFF" points="112.107757 36.6420263 119.11806 36.6420263 119.11806 0.801368421 112.107757 0.801368421"></polygon>
                <path d="M138.771665,23.4152105 C138.771665,18.3043684 137.725468,15.6696579 133.853757,15.6696579 C129.982647,15.6696579 128.935849,18.3043684 128.935849,23.4152105 C128.935849,28.5272632 129.982647,31.2666842 133.853757,31.2666842 C137.725468,31.2666842 138.771665,28.5272632 138.771665,23.4152105 Z M145.885927,23.4152105 C145.885927,31.5299737 142.956454,37.2745263 133.853757,37.2745263 C124.750459,37.2745263 121.820986,31.5299737 121.820986,23.4152105 C121.820986,15.3004474 124.750459,9.66242105 133.853757,9.66242105 C142.956454,9.66242105 145.885927,15.3004474 145.885927,23.4152105 L145.885927,23.4152105 Z" id="Fill-9" fill="#FFFFFF"></path>
                <path d="M158.100174,25.4706842 C156.269179,25.6286579 155.171303,26.5244474 155.171303,28.4219474 C155.171303,30.2661842 155.85094,31.5299737 157.734817,31.5299737 C159.98405,31.5299737 162.861243,30.6874474 162.861243,30.6874474 L162.861243,25.0494211 L158.100174,25.4706842 Z M169.871546,29.4757105 C169.976106,31.0560526 170.185826,31.6885526 171.598583,31.9524474 L171.388862,37.2745263 C167.883711,37.2745263 166.104995,36.9053158 163.90744,35.4296842 C163.90744,35.4296842 160.14089,37.2745263 156.2175,37.2745263 C150.723913,37.2745263 148.108119,34.2179474 148.108119,28.6319737 C148.108119,22.678 151.509312,20.9917368 157.263697,20.5704737 L162.861243,20.1486053 L162.861243,18.515 C162.861243,16.2488947 161.867326,15.6696579 159.77433,15.6696579 C156.32206,15.6696579 149.939115,16.0909211 149.939115,16.0909211 L149.729995,11.1907105 C149.729995,11.1907105 155.328142,9.66242105 160.35061,9.66242105 C167.151193,9.66242105 169.871546,12.3497895 169.871546,18.515 L169.871546,29.4757105 L169.871546,29.4757105 Z" id="Fill-10" fill="#FFFFFF"></path>
                <path d="M189.832821,30.1602632 L189.832821,16.3021579 C189.832821,16.3021579 186.955628,15.7749737 184.705193,15.7749737 C182.090601,15.7749737 180.468124,18.0404737 180.468124,23.3631579 C180.468124,28.7378947 181.462642,30.9507368 184.758073,30.9507368 C187.217028,30.9507368 189.832821,30.1602632 189.832821,30.1602632 Z M196.843124,36.6420263 L189.8845,36.6420263 L189.8845,35.535 C189.8845,35.535 186.222509,37.2745263 183.555037,37.2745263 C175.655376,37.2745263 173.353261,32.637 173.353261,23.3631579 C173.353261,13.7201053 177.068133,9.66242105 184.182995,9.66242105 C186.11795,9.66242105 189.832821,10.4002368 189.832821,10.4002368 L189.832821,0.801368421 L196.843124,0.801368421 L196.843124,36.6420263 L196.843124,36.6420263 Z" id="Fill-11" fill="#FFFFFF"></path>
                <path d="M56.5926009,8.01186842 L56.5926009,8.01186842 C54.5086193,8.01186842 52.8032156,6.29413158 52.8032156,4.19447368 C52.8032156,2.09481579 54.5086193,0.377078947 56.5926009,0.377078947 C58.6771835,0.377078947 60.3825872,2.09481579 60.3825872,4.19447368 C60.3825872,6.29413158 58.6771835,8.01186842 56.5926009,8.01186842" id="Fill-12" fill="#393A37"></path>
                <path d="M219.649142,27.8548158 C219.649142,26.3513421 220.265683,24.9925263 221.257798,24.0210789 L215.410271,24.0210789 C214.514904,26.1976053 216.097119,28.5781053 218.428078,28.5775 L219.697216,28.5775 C219.665367,28.3408421 219.649142,28.0999474 219.649142,27.8548158" id="Fill-13" fill="#FFFFFF"></path>
                <path d="M251.455101,29.8394737 C250.366839,29.8394737 249.484693,28.9509474 249.484693,27.8548158 C249.484693,26.7586842 250.366839,25.8701579 251.455101,25.8701579 C252.543362,25.8701579 253.425509,26.7586842 253.425509,27.8548158 C253.425509,28.9509474 252.543362,29.8394737 251.455101,29.8394737 Z M229.735541,24.0210789 C229.721119,24.0071579 229.706096,23.9926316 229.691674,23.9787105 L229.804647,24.0210789 L229.735541,24.0210789 Z M226.036294,29.8394737 C224.948032,29.8394737 224.065885,28.9509474 224.065885,27.8548158 C224.065885,26.7586842 224.948032,25.8701579 226.036294,25.8701579 C227.124555,25.8701579 228.006702,26.7586842 228.006702,27.8548158 C228.006702,28.9509474 227.124555,29.8394737 226.036294,29.8394737 Z M259.839101,16.6538158 L254.544417,15.1418684 L254.54622,15.1358158 L248.639202,13.4447105 L248.683069,8.82473684 L252.423179,8.82473684 L255.974,14.8265263 L259.051298,15.3192105 L254.564849,7.70076316 L255.449399,7.70076316 C255.957775,7.70076316 256.36039,7.27223684 256.36039,6.76018421 L256.36039,5.81476316 L250.761041,5.81476316 C250.754431,5.81476316 250.748422,5.81476316 250.741812,5.85107895 L208.123546,5.85107895 C207.227578,7.99068421 208.807991,10.3845 211.13955,10.3845 L241.39995,10.3845 C241.027982,11.2911842 240.148239,11.8873684 239.17295,11.8873684 L210.55606,11.8891842 C209.660092,14.0566316 211.241106,16.4456053 213.572064,16.4456053 L235.918381,16.4462105 C235.542807,17.3547105 234.662463,17.9460526 233.685972,17.9460526 L212.98617,17.9448421 C212.092005,20.1135 213.67422,22.4982368 216.00578,22.4982368 L225.788716,22.4982368 L225.828376,22.5133684 C222.993248,22.6235263 220.728991,24.9725526 220.728991,27.8548158 C220.728991,30.8072895 223.105018,33.2011053 226.036294,33.2011053 C228.724798,33.2011053 230.945789,31.1873947 231.296124,28.5762895 L245.040908,28.5744737 C245.009661,28.3390263 244.992835,28.0987368 244.992835,27.8548158 C244.992835,24.9023421 247.369463,22.5085263 250.300739,22.5085263 C250.495436,22.5085263 250.68833,22.5194211 250.877619,22.54 C248.217959,22.8299211 246.147197,25.0984474 246.147197,27.8548158 C246.147197,30.8072895 248.523826,33.2011053 251.455101,33.2011053 C254.144206,33.2011053 256.366399,31.1855789 256.714931,28.5732632 L258.630055,28.5726579 C259.750766,28.5726579 260.693005,27.7265 260.821,26.6049474 L261.88883,17.2457632 L259.840904,16.6568421 L259.839101,16.6538158 L259.839101,16.6538158 Z" id="Fill-14" fill="#FFFFFF"></path>
                <path d="M259.166073,38.3458421 C259.166073,39.3929474 250.048353,40.2415263 238.801583,40.2415263 C227.554812,40.2415263 218.437092,39.3929474 218.437092,38.3458421 C218.437092,37.2981316 227.554812,36.4495526 238.801583,36.4495526 C250.048353,36.4495526 259.166073,37.2981316 259.166073,38.3458421" id="Fill-15" fill="#FFFFFF"></path>
            </g>
        </g>
    </g>
</svg>